<svg id="eBI1aP8YjUF1" xmlns="http://www.w3.org/2000/svg" xmlns:xlink="http://www.w3.org/1999/xlink" viewBox="0 0 500 500" shape-rendering="geometricPrecision" text-rendering="geometricPrecision"><defs><linearGradient id="eBI1aP8YjUF4-fill" x1="-47.86" y1="0.003251" x2="47.866502" y2="0.003251" spreadMethod="pad" gradientUnits="userSpaceOnUse" gradientTransform="translate(0 0)"><stop id="eBI1aP8YjUF4-fill-0" offset="0%" stop-color="#4997f8"/><stop id="eBI1aP8YjUF4-fill-1" offset="100%" stop-color="#ca29ef"/></linearGradient><linearGradient id="eBI1aP8YjUF10-fill" x1="-47.86" y1="0.003251" x2="47.866502" y2="0.003251" spreadMethod="pad" gradientUnits="userSpaceOnUse" gradientTransform="translate(0 0)"><stop id="eBI1aP8YjUF10-fill-0" offset="0%" stop-color="#4997f8"/><stop id="eBI1aP8YjUF10-fill-1" offset="100%" stop-color="#ca29ef"/></linearGradient><linearGradient id="eBI1aP8YjUF14-fill" x1="-47.86" y1="0.003251" x2="47.866502" y2="0.003251" spreadMethod="pad" gradientUnits="userSpaceOnUse" gradientTransform="translate(0 0)"><stop id="eBI1aP8YjUF14-fill-0" offset="0%" stop-color="#4997f8"/><stop id="eBI1aP8YjUF14-fill-1" offset="100%" stop-color="#ca29ef"/></linearGradient><linearGradient id="eBI1aP8YjUF18-fill" x1="-10.292933" y1="13.368958" x2="12.385104" y2="-13.034146" spreadMethod="pad" gradientUnits="userSpaceOnUse" gradientTransform="translate(0 0)"><stop id="eBI1aP8YjUF18-fill-0" offset="0%" stop-color="#2f2e2e"/><stop id="eBI1aP8YjUF18-fill-1" offset="100%" stop-color="#000"/></linearGradient><linearGradient id="eBI1aP8YjUF24-fill" x1="-10.292933" y1="13.368958" x2="12.385104" y2="-13.034146" spreadMethod="pad" gradientUnits="userSpaceOnUse" gradientTransform="translate(0 0)"><stop id="eBI1aP8YjUF24-fill-0" offset="0%" stop-color="#2f2e2e"/><stop id="eBI1aP8YjUF24-fill-1" offset="100%" stop-color="#000"/></linearGradient><linearGradient id="eBI1aP8YjUF30-fill" x1="-10.292933" y1="13.368958" x2="12.385104" y2="-13.034146" spreadMethod="pad" gradientUnits="userSpaceOnUse" gradientTransform="translate(0 0)"><stop id="eBI1aP8YjUF30-fill-0" offset="0%" stop-color="#2f2e2e"/><stop id="eBI1aP8YjUF30-fill-1" offset="100%" stop-color="#000"/></linearGradient><linearGradient id="eBI1aP8YjUF36-fill" x1="-10.292933" y1="13.368958" x2="12.385104" y2="-13.034146" spreadMethod="pad" gradientUnits="userSpaceOnUse" gradientTransform="translate(0 0)"><stop id="eBI1aP8YjUF36-fill-0" offset="0%" stop-color="#2f2e2e"/><stop id="eBI1aP8YjUF36-fill-1" offset="100%" stop-color="#000"/></linearGradient></defs><g transform="matrix(2.569038 0 0 2.520303-392.266489-380.279197)"><g transform="matrix(1.1 0 0 0.54 249.48 227.3)"><path d="M-47.86325,-27.66417c0-11.15564,4.46222-20.19908,9.96665-20.19908h75.7932v0c5.50443,0,9.96665,9.04344,9.96665,20.19908v55.32834v0c0,11.15564-4.46222,20.19908-9.96665,20.19908h-75.7932v0c-5.50443,0-9.96665-9.04344-9.96665-20.19908Z" fill="url(#eBI1aP8YjUF4-fill)" stroke="#cf80a7" stroke-width="0"/></g><g transform="translate(325.24 258.13)"><path d="M0,9.3654C0,4.19303,4.19303,0,9.3654,0h25.41813v0c5.17237,0,9.3654,4.19303,9.3654,9.3654v25.41813v0c0,5.17237-4.19303,9.3654-9.3654,9.3654h-25.41813v0C4.19303,44.14893,0,39.9559,0,34.78353Z" transform="translate(-22.07-22.07)" fill="#ca29ef" stroke="#5bde56" stroke-width="0"/></g><g transform="translate(174.76 258.13)"><path d="M0,9.3654C0,4.19303,4.19303,0,9.3654,0h25.41813v0c5.17237,0,9.3654,4.19303,9.3654,9.3654v25.41813v0c0,5.17237-4.19303,9.3654-9.3654,9.3654h-25.41813v0C4.19303,44.14893,0,39.9559,0,34.78353Z" transform="translate(-22.07-22.07)" fill="#4997f8" stroke="#5bde56" stroke-width="0"/></g><g transform="matrix(1.72 0 0 0.85 248.13 258.13)"><path d="M-47.86325,-27.66417c0-11.15564,4.46222-20.19908,9.96665-20.19908h75.7932v0c5.50443,0,9.96665,9.04344,9.96665,20.19908v55.32834v0c0,11.15564-4.46222,20.19908-9.96665,20.19908h-75.7932v0c-5.50443,0-9.96665-9.04344-9.96665-20.19908Z" fill="url(#eBI1aP8YjUF10-fill)" stroke="#cf80a7" stroke-width="0"/></g><g transform="matrix(1.61 0 0 0.79 248.13 258.13)"><path d="M-47.86325,-27.66417c0-11.15564,4.46222-20.19908,9.96665-20.19908h75.7932v0c5.50443,0,9.96665,9.04344,9.96665,20.19908v55.32834v0c0,11.15564-4.46222,20.19908-9.96665,20.19908h-75.7932v0c-5.50443,0-9.96665-9.04344-9.96665-20.19908Z" fill="#fff" stroke="#cf80a7" stroke-width="0"/></g><g transform="matrix(1.52 0 0 0.75 248.13 258.13)"><path d="M-47.86325,-27.55659c0-11.21506,4.46605-20.30666,9.9752-20.30666h75.7761v0c5.50915,0,9.9752,9.0916,9.9752,20.30666v55.11319v0c0,11.21506-4.46605,20.30666-9.9752,20.30666h-75.7761v0c-5.50915,0-9.9752-9.0916-9.9752-20.30666Z" fill="url(#eBI1aP8YjUF14-fill)" stroke="#cf80a7" stroke-width="0"/></g><g transform="translate(298.75 236.95)"><g><g transform="matrix(.32 0 0 0.32 0 0)"><path d="M0,-18.14815c10.01778,0,18.14815,8.13037,18.14815,18.14815s-8.13037,18.14815-18.14815,18.14815-18.14815-8.13037-18.14815-18.14815s8.13037-18.14815,18.14815-18.14815Z" fill="url(#eBI1aP8YjUF18-fill)" stroke="#030374" stroke-width="0"/></g><g transform="matrix(.1 0 0 0.1 1.75-1.75)"><path d="M0,-18.14815c10.01778,0,18.14815,8.13037,18.14815,18.14815s-8.13037,18.14815-18.14815,18.14815-18.14815-8.13037-18.14815-18.14815s8.13037-18.14815,18.14815-18.14815Z" opacity="0.13" fill="#fff" stroke="#030374" stroke-width="0"/></g></g></g><g transform="translate(191.03 236.95)"><g><g transform="matrix(.32 0 0 0.32 0 0)"><path d="M0,-18.14815c10.01778,0,18.14815,8.13037,18.14815,18.14815s-8.13037,18.14815-18.14815,18.14815-18.14815-8.13037-18.14815-18.14815s8.13037-18.14815,18.14815-18.14815Z" fill="url(#eBI1aP8YjUF24-fill)" stroke="#030374" stroke-width="0"/></g><g transform="matrix(.1 0 0 0.1 1.75-1.75)"><path d="M0,-18.14815c10.01778,0,18.14815,8.13037,18.14815,18.14815s-8.13037,18.14815-18.14815,18.14815-18.14815-8.13037-18.14815-18.14815s8.13037-18.14815,18.14815-18.14815Z" opacity="0.13" fill="#fff" stroke="#030374" stroke-width="0"/></g></g></g><g transform="translate(300.29 278.42)"><g><g transform="matrix(.32 0 0 0.32 0 0)"><path d="M0,-18.14815c10.01778,0,18.14815,8.13037,18.14815,18.14815s-8.13037,18.14815-18.14815,18.14815-18.14815-8.13037-18.14815-18.14815s8.13037-18.14815,18.14815-18.14815Z" fill="url(#eBI1aP8YjUF30-fill)" stroke="#030374" stroke-width="0"/></g><g transform="matrix(.1 0 0 0.1 1.75-1.75)"><path d="M0,-18.14815c10.01778,0,18.14815,8.13037,18.14815,18.14815s-8.13037,18.14815-18.14815,18.14815-18.14815-8.13037-18.14815-18.14815s8.13037-18.14815,18.14815-18.14815Z" opacity="0.13" fill="#fff" stroke="#030374" stroke-width="0"/></g></g></g><g transform="translate(191.03 278.42)"><g><g transform="matrix(.32 0 0 0.32 0 0)"><path d="M0,-18.14815c10.01778,0,18.14815,8.13037,18.14815,18.14815s-8.13037,18.14815-18.14815,18.14815-18.14815-8.13037-18.14815-18.14815s8.13037-18.14815,18.14815-18.14815Z" fill="url(#eBI1aP8YjUF36-fill)" stroke="#030374" stroke-width="0"/></g><g transform="matrix(.1 0 0 0.1 1.75-1.75)"><path d="M0,-18.14815c10.01778,0,18.14815,8.13037,18.14815,18.14815s-8.13037,18.14815-18.14815,18.14815-18.14815-8.13037-18.14815-18.14815s8.13037-18.14815,18.14815-18.14815Z" opacity="0.13" fill="#fff" stroke="#030374" stroke-width="0"/></g></g></g></g></svg>
